<svg width="75" height="75" viewBox="0 0 75 75" fill="none" xmlns="http://www.w3.org/2000/svg">
<g clip-path="url(#clip0_2_387)">
<path d="M0 0H75V75H0V0Z" fill="#2A0634"/>
<path d="M0 0V75H75V0H0ZM72.0703 72.0703H2.92969V2.92969H72.0703V72.0703Z" fill="#E976B9"/>
<path d="M40.4297 27.5977C40.3711 22.0899 35.8594 17.6954 30.3516 17.754H19.5117V52.0313H25.1367V39.5509H30C35.7422 39.4923 40.4297 34.7462 40.4297 28.9454V27.5977ZM34.8047 29.3556C34.8047 32.2852 32.4023 34.6876 29.4727 34.6876H25.1367V22.5587H29.4727C32.4023 22.5587 34.8047 24.961 34.8047 27.8907V29.3556ZM45.1758 52.0313V28.6524C45.1758 28.6524 51.1523 25.6642 57.0117 26.4259V31.2892C57.0117 31.2892 52.9102 31.2892 51.0937 32.0509V52.0899H45.1758V52.0313Z" fill="#E976B9"/>
</g>
<defs>
<clipPath id="clip0_2_387">
<rect width="75" height="75" fill="white"/>
</clipPath>
</defs>
</svg>
