<svg width="75" height="75" viewBox="0 0 75 75" fill="none" xmlns="http://www.w3.org/2000/svg">
<path fill-rule="evenodd" clip-rule="evenodd" d="M25.3458 71.0349C25.3921 71.6314 25.3628 72.2484 25.521 72.8144C25.5884 73.0534 26.0483 73.1829 26.3302 73.3622L26.6964 73.5972C26.5587 73.6775 26.4216 73.8251 26.2821 73.8269C25.1889 73.8457 24.0953 73.8461 23.0021 73.828C22.8567 73.8257 22.7144 73.6892 22.5714 73.6148C22.6874 73.531 22.7987 73.3857 22.9212 73.3757C23.6542 73.3142 23.8774 72.8689 23.8739 72.2103C23.8675 70.9997 23.8704 69.788 23.8757 68.5763C23.8786 67.9013 23.687 67.4085 22.8919 67.378C22.7817 67.3734 22.6774 67.2046 22.5708 67.1126C22.6774 67.0476 22.7853 66.9245 22.8907 66.9263C24.2911 66.9433 25.6974 66.9122 27.0901 67.03C28.1876 67.1232 28.9106 67.8825 28.9851 68.7579C29.0659 69.7183 28.5731 70.3775 27.4587 70.8005L27.0315 70.9599C27.7493 71.6384 28.3851 72.3017 29.0917 72.8771C29.4052 73.1331 29.8493 73.2855 30.2571 73.3558C31.0733 73.4952 31.5163 73.1443 31.5386 72.3351C31.5743 71.029 31.5573 69.7212 31.545 68.4146C31.5392 67.8157 31.2819 67.4202 30.614 67.3874C30.488 67.3816 30.3679 67.2392 30.2454 67.1601C30.3854 67.078 30.5255 66.9257 30.6644 66.9263C32.0894 66.938 33.5208 66.8941 34.9364 67.0206C37.3522 67.2351 38.6981 69.2454 37.9915 71.4667C37.5608 72.8214 36.5296 73.5872 35.203 73.6775C32.8839 73.8357 30.5519 73.8034 28.2251 73.8198C28.0399 73.821 27.8114 73.62 27.672 73.4548C27.1364 72.8191 26.6313 72.1581 26.1087 71.5118C25.9505 71.3161 25.7741 71.1362 25.606 70.9487L25.3458 71.0349ZM33.0327 67.596C33.0327 69.2278 33.0128 70.8093 33.0538 72.389C33.0603 72.6316 33.294 72.9978 33.5108 73.0845C34.3646 73.4249 35.7444 72.8689 36.13 72.0052C36.6462 70.8491 36.7089 69.6321 36.011 68.5353C35.3226 67.453 34.1759 67.5609 33.0327 67.596ZM25.4032 70.2685C26.1427 70.2872 26.9577 70.4519 27.2735 69.6398C27.4505 69.1845 27.4106 68.4784 27.1663 68.0636C26.7954 67.4331 26.0495 67.5433 25.4026 67.623L25.4032 70.2685Z" fill="#337BA2"/>
<path fill-rule="evenodd" clip-rule="evenodd" d="M56.7012 69.9317C57.1898 69.8263 57.6744 69.8415 57.9891 69.6171C58.2533 69.4296 58.3189 68.9632 58.5211 68.512C58.6377 68.7212 58.7473 68.8278 58.7496 68.9362C58.7643 69.7448 58.7672 70.554 58.7496 71.3626C58.7467 71.4891 58.6172 71.6128 58.5463 71.7382C58.4666 71.6714 58.3477 71.621 58.3125 71.5354C57.883 70.4977 57.8854 70.4972 56.6467 70.6079C56.8277 71.4177 56.1996 72.453 57.1682 72.9856C57.6621 73.2569 58.459 73.203 59.0367 73.0255C59.5295 72.8755 59.9039 72.3393 60.3328 71.972V73.786C60.0955 73.8071 59.9156 73.8364 59.7346 73.8364C57.3082 73.8399 54.8818 73.8294 52.4561 73.8475C52.0377 73.8511 51.7547 73.7456 51.4992 73.3946C50.9971 72.702 50.4451 72.0458 49.9025 71.3837C49.7666 71.2179 49.5897 71.086 49.3043 70.82C49.3043 71.4962 49.2797 71.9807 49.3113 72.4618C49.3441 72.9645 49.5861 73.2979 50.1422 73.3606C50.3057 73.3794 50.4521 73.5511 50.6062 73.6536C50.4475 73.7151 50.2898 73.8282 50.1305 73.8311C49.06 73.8464 47.99 73.8458 46.9195 73.8317C46.7555 73.8294 46.5926 73.7304 46.4121 73.6706L46.5035 73.4931C47.8184 72.9622 47.8219 72.9622 47.8207 71.4376C47.8198 70.4864 47.8122 69.5352 47.7979 68.5841C47.7879 67.9272 47.6098 67.4063 46.8082 67.3782C46.6928 67.3741 46.5832 67.21 46.4701 67.1198C46.6025 67.0536 46.7355 66.9294 46.8674 66.9306C48.2215 66.9434 49.5832 66.8989 50.9279 67.0243C52.3998 67.1614 53.3098 68.389 52.7631 69.5186C52.4643 70.1356 51.774 70.5634 51.1664 71.1698C51.743 71.6972 52.4068 72.4554 53.2119 73.0067C54.3492 73.786 55.1268 73.3413 55.1555 71.9825C55.1795 70.8417 55.1514 69.6997 55.1467 68.5577C55.1443 67.8809 54.9352 67.3893 54.1406 67.3782C54.0322 67.3765 53.9256 67.261 53.7973 67.1849C54.2104 66.8802 58.1912 66.7694 59.9191 66.9903L60.0305 68.8735L59.8354 68.9532C59.4334 68.5331 59.4832 67.6647 58.6518 67.6618C58.0166 67.6589 57.3814 67.5921 56.6994 67.5511C56.7012 68.3456 56.7012 69.0686 56.7012 69.9317ZM49.2908 70.2634C50.8201 70.3249 51.4271 69.91 51.3908 68.8782C51.3551 67.8833 50.6906 67.4819 49.2908 67.6354V70.2634Z" fill="#515151"/>
<path fill-rule="evenodd" clip-rule="evenodd" d="M6.77031 70.7121C7.35391 68.9853 7.92988 67.2568 8.52988 65.5359C8.6125 65.2992 8.81465 65.1041 8.96172 64.889C9.10703 65.1105 9.30566 65.3138 9.38887 65.557C9.93437 67.1502 10.4535 68.7509 10.9838 70.3494C11.026 70.4777 11.0805 70.6013 11.2035 70.9171C11.7473 69.2689 12.2506 67.807 12.7059 66.3298C12.8641 65.8183 12.6584 65.4486 12.0631 65.3818C11.8668 65.3589 11.6764 65.2822 11.4473 65.2212C11.8434 64.7824 14.9377 64.7502 15.4475 65.158C15.3092 65.2236 15.199 65.3168 15.0854 65.3214C14.1186 65.3589 13.6709 65.9642 13.3955 66.7986C12.6584 69.031 11.9072 71.2582 11.159 73.4871C11.0811 73.7185 10.9832 73.9429 10.8941 74.1703L10.6475 74.1878L8.55039 67.8474L6.42988 74.1685L6.22246 74.1814C6.11406 73.9464 5.98105 73.7185 5.90195 73.4742C5.21816 71.3759 4.54316 69.2748 3.86641 67.1748C3.57637 66.273 3.28633 65.3765 2.10156 65.3191C2.02422 65.3156 1.95332 65.1849 1.87891 65.114C1.97148 65.0378 2.06406 64.8955 2.15781 64.8943C3.48906 64.8802 4.82148 64.8802 6.15273 64.8949C6.24531 64.8955 6.33613 65.0396 6.42812 65.117C6.3291 65.1908 6.24121 65.298 6.13047 65.332C5.06406 65.6543 4.9873 65.7779 5.32305 66.8121C5.74668 68.1205 6.1832 69.4236 6.61445 70.7296L6.77031 70.7121Z" fill="#3179A1"/>
<path fill-rule="evenodd" clip-rule="evenodd" d="M38.3696 65.1857C38.5331 65.0444 38.6245 64.8962 38.7136 64.898C40.4462 64.9237 42.1929 64.8435 43.9073 65.0427C45.5292 65.2308 46.4274 66.753 45.9382 68.1827C45.4999 69.4653 44.4188 69.8667 43.196 69.978C42.6798 70.0255 42.1554 69.9857 41.5413 69.9857C41.5958 70.837 41.6233 71.6146 41.7024 72.3868C41.7687 73.0396 42.2081 73.3009 42.8292 73.3536C42.9692 73.3659 43.097 73.5224 43.23 73.6126C43.0835 73.6864 42.9382 73.8236 42.7905 73.8253C41.5067 73.8423 40.2218 73.8417 38.938 73.8265C38.7839 73.8247 38.6315 73.6982 38.4786 73.6296C38.6063 73.5329 38.7317 73.3583 38.863 73.353C39.7202 73.3202 40.0419 72.7882 40.0524 72.0435C40.0782 70.2382 40.0759 68.4329 40.0536 66.6276C40.0442 65.8601 39.6733 65.3691 38.8396 65.3351C38.7153 65.3304 38.5923 65.2589 38.3696 65.1857ZM41.6058 69.115C43.1772 69.2778 43.7755 69.1278 44.154 68.4312C44.5337 67.7327 44.5349 67.0021 44.086 66.3417C43.4655 65.4282 42.5163 65.6984 41.6058 65.6655V69.115Z" fill="#4D4D4D"/>
<path fill-rule="evenodd" clip-rule="evenodd" d="M18.2088 74.0994C16.8049 74.0385 15.6611 73.5979 14.8138 72.5485C13.6109 71.059 13.7937 69.0363 15.2304 67.7485C16.7802 66.3598 19.3425 66.3 20.9334 67.6483C22.0103 68.5617 22.5207 69.7184 22.1703 71.1363C21.7748 72.736 20.6463 73.5926 19.1129 73.9817C18.7929 74.0619 18.4554 74.069 18.2088 74.0994ZM20.8713 70.4379L20.74 70.3518C20.6527 69.9363 20.6017 69.5086 20.4716 69.1067C20.0955 67.9518 19.308 67.3811 18.1496 67.3787C16.9953 67.3764 16.2189 67.95 15.8416 69.1172C15.5064 70.1549 15.5498 71.1832 16.066 72.1524C16.8365 73.5985 18.8955 73.8697 19.9033 72.5836C20.3732 71.9842 20.5572 71.1598 20.8713 70.4379Z" fill="#3279A1"/>
<path fill-rule="evenodd" clip-rule="evenodd" d="M71.9226 66.9826L72.4458 66.5244V69.0885L72.2941 69.2027C72.1716 69.0299 72.0023 68.8734 71.9337 68.6807C71.5874 67.7109 70.8409 67.1848 69.989 67.4402C69.6966 67.5275 69.345 67.8205 69.2671 68.0906C69.2032 68.3109 69.4341 68.7469 69.6603 68.8957C70.2509 69.2848 70.9089 69.573 71.5435 69.8936C72.9239 70.592 73.4173 71.5605 72.9503 72.6686C72.4763 73.7941 71.0384 74.3766 69.7499 73.9418C69.3948 73.8211 69.0661 73.623 68.7374 73.4666L68.2353 74.1264L68.0132 74.0584C68.0132 73.193 68.0079 72.3275 68.022 71.4621C68.0232 71.3783 68.148 71.2969 68.2153 71.2143C68.3208 71.342 68.4778 71.4545 68.5241 71.601C68.8306 72.5713 69.4206 73.2158 70.4724 73.3236C71.0718 73.3852 71.6577 73.3113 71.8657 72.6281C72.0556 72.0029 71.6196 71.6502 71.1515 71.3836C70.6364 71.0906 70.0921 70.851 69.5648 70.5809C69.3333 70.4619 69.0972 70.3441 68.8892 70.1912C68.1527 69.648 67.862 68.8652 68.08 68.0713C68.2745 67.3617 68.9724 66.7605 69.8361 66.7353C70.4753 66.7172 71.1222 66.8818 71.9226 66.9826ZM62.39 73.4437C62.2927 73.6371 62.2388 73.7994 62.1386 73.9248C62.0782 73.9998 61.93 74.0713 61.8515 74.0467C61.7771 74.0232 61.698 73.8744 61.6962 73.7795C61.6839 73.0184 61.6839 72.2566 61.6968 71.4967C61.698 71.4035 61.8011 71.3127 61.8573 71.2207C61.9652 71.2893 62.1187 71.3338 62.172 71.4328C62.271 71.6168 62.2939 71.8406 62.3806 72.0328C62.772 72.9012 63.5648 73.4443 64.4741 73.3125C64.8544 73.258 65.3237 72.9691 65.5124 72.6457C65.7667 72.2115 65.462 71.7645 65.0355 71.5178C64.4618 71.1861 63.8677 70.8879 63.2724 70.5973C61.9265 69.9404 61.3587 68.8559 61.8409 67.8322C62.3202 66.8144 63.7921 66.3908 65.022 66.9205C65.172 66.985 65.3144 67.067 65.4321 67.1279L66.0638 66.6088C66.13 66.7945 66.1722 66.8584 66.1728 66.9223C66.1775 67.6348 66.1757 68.3467 66.1757 69.0586L65.99 69.1828C65.8663 69.0246 65.6946 68.8846 65.6273 68.7059C65.2915 67.8082 64.7601 67.3107 63.9808 67.4057C63.6152 67.4496 63.1493 67.701 62.9695 68.0021C62.7058 68.4445 63.0866 68.7996 63.488 69.0152C64.0523 69.3193 64.63 69.5965 65.2025 69.8842C66.6193 70.5949 67.1179 71.5822 66.6286 72.7107C66.1523 73.81 64.6681 74.3789 63.396 73.9277C63.0655 73.8111 62.7591 73.623 62.39 73.4437Z" fill="#505050"/>
<path fill-rule="evenodd" clip-rule="evenodd" d="M38.2388 0.817278C22.5468 0.5372 9.43526 13.2702 9.43115 28.7108C9.42647 44.5956 21.9339 57.2688 37.6013 57.2454C53.1228 57.2225 65.6864 44.5968 65.6864 29.0226C65.6858 13.7015 53.1796 1.08388 38.2388 0.817278ZM37.5661 55.8292C22.7267 55.8327 10.7923 43.8005 10.7929 28.8368C10.7935 14.2587 22.913 2.18837 37.555 2.1831C52.4565 2.17841 64.3294 14.2851 64.3247 29.4802C64.32 43.8257 52.1331 55.8263 37.5661 55.8292ZM51.8601 21.0556C51.2776 20.0958 50.5616 19.1647 50.2323 18.1183C49.8573 16.9276 49.5462 15.5724 49.7448 14.3788C50.0823 12.355 51.6345 11.3501 53.7362 11.1579C42.2378 0.486223 24.1687 4.30595 17.5106 15.9011C20.0735 15.7821 22.5204 15.6268 24.969 15.594C25.4325 15.5876 26.1995 15.979 26.3085 16.3423C26.5522 17.1538 25.8702 17.4368 25.1448 17.4925C24.3825 17.5522 23.619 17.6091 22.7337 17.6765L31.4847 43.7472C31.695 43.4032 31.7817 43.3065 31.8198 43.1935C33.4382 38.3565 35.0659 33.5226 36.6433 28.6716C36.7874 28.2292 36.7159 27.6433 36.5577 27.1886C35.7233 24.7798 34.7237 22.4231 33.9919 19.9851C33.4909 18.3157 32.8271 17.2358 30.8542 17.4292C30.5179 17.462 30.1083 16.739 29.7315 16.3651C30.1868 16.0938 30.6386 15.594 31.098 15.587C35.1157 15.5255 39.1342 15.5267 43.1519 15.5905C43.6124 15.5981 44.0642 16.1114 44.52 16.3897C44.121 16.7542 43.7776 17.3003 43.3112 17.4409C42.5636 17.6665 41.7345 17.6237 40.8397 17.7034L49.6013 43.7683C50.929 39.3597 52.1642 35.3108 53.3642 31.2526C54.4364 27.6304 53.7978 24.2466 51.8601 21.0556ZM30.8899 51.6497C30.836 51.8061 30.8331 51.9796 30.7915 52.2397C35.7474 53.6132 40.606 53.5142 45.5806 51.8384L37.9821 31.0259C35.5499 38.0946 33.2179 44.8716 30.8899 51.6497ZM27.0608 50.7087L15.6128 19.3048C10.4483 29.3929 14.3771 44.7849 27.0608 50.7087ZM58.9663 18.246C58.8081 20.0003 58.9183 21.9532 58.4149 23.7315C57.2296 27.9222 55.7806 32.0407 54.3854 36.1704C52.869 40.6587 51.2917 45.127 49.7407 49.6042C57.028 45.2847 61.0323 38.9091 61.6698 30.529C62.0331 25.7595 60.3878 19.1548 58.9663 18.246Z" fill="#494949"/>
</svg>
