<svg width="75" height="75" viewBox="0 0 75 75" fill="none" xmlns="http://www.w3.org/2000/svg">
<path fill-rule="evenodd" clip-rule="evenodd" d="M37.4998 2.98999C17.9605 2.98999 2.11621 18.8308 2.11621 38.3736C2.11621 54.0076 12.2547 67.2703 26.3137 71.9496C28.0814 72.2777 28.7307 71.182 28.7307 70.2474C28.7307 69.4037 28.6979 66.6164 28.6826 63.6597C18.8389 65.8002 16.7617 59.4849 16.7617 59.4849C15.1521 55.3951 12.833 54.3076 12.833 54.3076C9.62207 52.1115 13.075 52.1572 13.075 52.1572C16.6275 52.4062 18.499 55.8035 18.499 55.8035C21.6549 61.2117 26.7766 59.6484 28.7957 58.7449C29.1133 56.458 30.0303 54.8964 31.0422 54.0128C23.183 53.1193 14.9207 50.0847 14.9207 36.5267C14.9207 32.6636 16.3035 29.5072 18.567 27.0287C18.199 26.138 16.9879 22.5392 18.9092 17.6654C18.9092 17.6654 21.8799 16.7144 28.6416 21.2923C31.4646 20.5078 34.4922 20.1134 37.4998 20.1C40.5057 20.1134 43.535 20.5066 46.3633 21.2912C53.1168 16.7132 56.084 17.6642 56.084 17.6642C58.01 22.5375 56.7988 26.1369 56.4314 27.0275C58.7002 29.506 60.073 32.6625 60.073 36.5255C60.073 50.1158 51.7955 53.1076 43.9164 53.9841C45.1861 55.0822 46.317 57.2361 46.317 60.5367C46.317 65.271 46.276 69.0814 46.276 70.2468C46.276 71.1884 46.9135 72.2918 48.7064 71.9443C62.7572 67.2603 72.884 54.0017 72.884 38.3736C72.8834 18.832 57.0408 2.98999 37.4998 2.98999Z" fill="white"/>
<path d="M15.5176 53.7926C15.4397 53.9684 15.1631 54.0211 14.9111 53.901C14.6533 53.7861 14.5098 53.5465 14.593 53.3701C14.6692 53.1885 14.9463 53.1387 15.2024 53.26C15.4602 53.3754 15.6067 53.6174 15.517 53.7932L15.5176 53.7926ZM16.9508 55.3916C16.7826 55.548 16.4527 55.4754 16.2289 55.2275C15.9969 54.9814 15.9535 54.6516 16.1252 54.4928C16.2998 54.3369 16.6197 54.4107 16.8518 54.6568C17.0826 54.9064 17.1283 55.2334 16.9514 55.3922L16.9508 55.3916ZM18.3465 57.4289C18.1297 57.5801 17.7746 57.4389 17.5555 57.1242C17.3387 56.809 17.3387 56.431 17.5613 56.2805C17.7799 56.1293 18.1297 56.2658 18.3524 56.5775C18.568 56.8969 18.568 57.2754 18.3465 57.4289ZM20.2572 59.3982C20.0639 59.6121 19.6502 59.5547 19.3479 59.2635C19.0391 58.9781 18.9529 58.5721 19.1469 58.3588C19.3438 58.1443 19.7592 58.2041 20.0633 58.4935C20.3721 58.7783 20.4652 59.185 20.2584 59.3976L20.2572 59.3982ZM22.894 60.5414C22.8078 60.8185 22.4106 60.9445 22.0092 60.8262C21.609 60.7049 21.3471 60.3809 21.4291 60.1008C21.5111 59.8213 21.9113 59.6906 22.315 59.8166C22.7152 59.9373 22.9772 60.2596 22.894 60.5414ZM25.7902 60.7529C25.8002 61.0447 25.4604 61.2861 25.0402 61.292C24.6166 61.3019 24.2738 61.0652 24.2697 60.7781C24.2697 60.4834 24.6025 60.2449 25.0256 60.2367C25.4457 60.2291 25.7908 60.4635 25.7908 60.7523L25.7902 60.7529ZM28.4844 60.2947C28.5348 60.5789 28.2424 60.8713 27.8246 60.9492C27.4145 61.0254 27.0336 60.8484 26.9809 60.5666C26.9305 60.2748 27.2281 59.9824 27.6383 59.9068C28.0567 59.8348 28.4317 60.0059 28.4844 60.2947Z" fill="white"/>
</svg>
