<svg width="75" height="75" viewBox="0 0 75 75" fill="none" xmlns="http://www.w3.org/2000/svg">
<path d="M16.3652 6.05513L37.5 3.83618L58.6348 6.05571L75 27.842L37.5 71.1639L0 27.842L16.3652 6.05513Z" fill="#FDB300"/>
<path d="M15.1904 27.842L37.5 71.1639L0 27.842H15.1904ZM59.8096 27.842L37.5 71.1639L75 27.842H59.8096Z" fill="#EA6C00"/>
<path d="M15.1904 27.842H59.8096L37.5 71.1639L15.1904 27.842Z" fill="#FDAD00"/>
<path d="M37.5 3.83618L16.3652 6.05513L15.1904 27.842L37.5 3.83618ZM37.5 3.83618L58.6348 6.05513L59.8096 27.842L37.5 3.83618Z" fill="#FDD231"/>
<path d="M75 27.8421L58.6348 6.05518L59.8096 27.8421H75Z" fill="#FDAD00"/>
<path d="M37.5 3.83618L15.1904 27.842H59.8096L37.5 3.83618Z" fill="#FEEEB7"/>
<path d="M0 27.8421L16.3652 6.05518L15.1904 27.8421H0Z" fill="#FDAD00"/>
</svg>
