<svg width="75" height="75" viewBox="0 0 75 75" fill="none" xmlns="http://www.w3.org/2000/svg">
<g clip-path="url(#clip0_2_380)">
<path d="M3.80859 3.80859H71.1914V71.1914H3.80859V3.80859Z" fill="#1F0740"/>
<path d="M0 0V75H75V0H0ZM71.1914 71.1914H3.80859V3.80859H71.1914V71.1914Z" fill="#D490C5"/>
<path d="M60.6445 34.6875C60.6445 34.6875 60.293 26.1328 50.9766 26.1328C41.6016 26.1328 40.8398 39.0234 40.8398 39.0234V41.7773C40.8398 41.7773 42.4805 52.5 50.3906 52.5C58.3008 52.5 59.0625 50.9766 59.0625 50.9766V46.2305C59.0625 46.2305 47.7539 51.6211 46.6406 40.3711H60.7031V34.6875H60.6445ZM55.3711 36.0938H46.582C46.582 36.0938 46.582 31.2305 50.9766 30.7031C55.7812 30.7031 55.3711 36.0938 55.3711 36.0938ZM29.5898 17.5195H22.5V19.7461L13.125 51.9141H18.6328L21.2109 42.4805H31.0547L33.6914 51.9141H39.7266L29.5898 17.5195ZM22.3828 36.9727L26.1328 22.6172L29.8828 36.9727H22.3828Z" fill="#D490C5"/>
</g>
<defs>
<clipPath id="clip0_2_380">
<rect width="75" height="75" fill="white"/>
</clipPath>
</defs>
</svg>
