<svg width="75" height="75" viewBox="0 0 75 75" fill="none" xmlns="http://www.w3.org/2000/svg">
<path d="M37.3889 0.601074L2.66797 12.8202L8.1541 58.3106L37.4258 74.3987L66.848 58.0933L72.3324 12.604L37.3889 0.601074Z" fill="#B3B3B3"/>
<path d="M68.8686 15.2333L37.3076 4.47021V70.5552L63.7574 55.9167L68.8686 15.2333Z" fill="#A6120D"/>
<path d="M6.56299 15.4272L11.2657 56.1112L37.3071 70.5551V4.46899L6.56299 15.4272Z" fill="#DD1B16"/>
<path d="M45.9956 39.6505L37.3079 43.7134H28.1509L23.846 54.4794L15.8403 54.6282L37.3079 6.86963L45.9956 39.6505ZM45.1554 37.605L37.3653 22.1825L30.9751 37.3396H37.3073L45.1554 37.605Z" fill="#F2F2F2"/>
<path d="M37.3071 6.86963L37.3646 22.1825L44.6155 37.3513H37.3229L37.3071 43.7034L47.3905 43.7134L52.1026 54.6294L59.7632 54.7712L37.3071 6.86963Z" fill="#B3B3B3"/>
</svg>
