<svg width="75" height="74" viewBox="0 0 75 74" fill="none" xmlns="http://www.w3.org/2000/svg">
<g clip-path="url(#clip0_2_352)">
<path d="M13.2812 0H61.7188C69.0625 0 75 5.9375 75 13.2812V59.8438C75 67.1875 69.0625 73.125 61.7188 73.125H13.2812C5.9375 73.125 0 67.1875 0 59.8438V13.2812C0 5.9375 5.9375 0 13.2812 0Z" fill="#001E36"/>
<path d="M16.875 51.2813V19.125C16.875 18.9063 16.9688 18.7812 17.1875 18.7812C17.7188 18.7812 18.2187 18.7813 18.9375 18.75C19.6875 18.7188 20.4687 18.7187 21.3125 18.6875C22.1562 18.6562 23.0625 18.6562 24.0313 18.625C25 18.5937 25.9375 18.5938 26.875 18.5938C29.4375 18.5938 31.5625 18.9062 33.3125 19.5625C34.875 20.0937 36.3125 20.9688 37.5 22.125C38.5 23.125 39.2812 24.3437 39.7812 25.6875C40.25 27 40.5 28.3438 40.5 29.75C40.5 32.4375 39.875 34.6563 38.625 36.4063C37.375 38.1563 35.625 39.4688 33.5938 40.2188C31.4688 41 29.125 41.2813 26.5625 41.2813C25.8125 41.2813 25.3125 41.2813 25 41.25C24.6875 41.2188 24.25 41.2188 23.6562 41.2188V51.25C23.6875 51.4688 23.5312 51.6562 23.3125 51.6875C23.2812 51.6875 23.25 51.6875 23.1875 51.6875H17.25C17 51.6875 16.875 51.5625 16.875 51.2813ZM23.6875 24.8125V35.3125C24.125 35.3438 24.5312 35.375 24.9062 35.375H26.5625C27.7812 35.375 29 35.1875 30.1562 34.8125C31.1562 34.5313 32.0312 33.9375 32.7187 33.1563C33.375 32.375 33.6875 31.3125 33.6875 29.9375C33.7188 28.9688 33.4688 28 32.9688 27.1563C32.4375 26.3438 31.6875 25.7187 30.7812 25.375C29.625 24.9062 28.375 24.7187 27.0937 24.75C26.2812 24.75 25.5625 24.75 24.9688 24.7813C24.3438 24.75 23.9063 24.7813 23.6875 24.8125Z" fill="#31A8FF"/>
<path d="M60.0001 33.4062C59.0626 32.9062 58.0626 32.5625 57.0001 32.3437C55.8438 32.0937 54.6876 31.9375 53.5001 31.9375C52.8751 31.9062 52.2188 32 51.6251 32.1562C51.2188 32.25 50.8751 32.4687 50.6563 32.7812C50.5001 33.0312 50.4063 33.3437 50.4063 33.625C50.4063 33.9062 50.5313 34.1875 50.7188 34.4375C51.0001 34.7812 51.3751 35.0625 51.7813 35.2812C52.5001 35.6562 53.2501 36 54.0001 36.3125C55.6876 36.875 57.3126 37.6562 58.8126 38.5937C59.8438 39.25 60.6876 40.125 61.2813 41.1875C61.7813 42.1875 62.0313 43.2813 62.0001 44.4062C62.0313 45.875 61.5938 47.3437 60.7813 48.5625C59.9063 49.8125 58.6876 50.7812 57.2813 51.3438C55.7501 52 53.8751 52.3438 51.6251 52.3438C50.1876 52.3438 48.7813 52.2187 47.3751 51.9375C46.2813 51.75 45.1876 51.4062 44.1876 50.9375C43.9688 50.8125 43.8126 50.5938 43.8438 50.3438V44.9062C43.8438 44.8125 43.8751 44.6875 43.9688 44.625C44.0626 44.5625 44.1563 44.5937 44.2501 44.6562C45.4688 45.375 46.7501 45.875 48.1251 46.1875C49.3126 46.5 50.5626 46.6562 51.8126 46.6562C53.0001 46.6562 53.8438 46.5 54.4063 46.2187C54.9063 46 55.2501 45.4687 55.2501 44.9062C55.2501 44.4687 55.0001 44.0625 54.5001 43.6562C54.0001 43.25 52.9688 42.7812 51.4376 42.1875C49.8438 41.625 48.3751 40.875 47.0001 39.9375C46.0313 39.25 45.2188 38.3438 44.6251 37.2812C44.1251 36.2812 43.8751 35.1875 43.9063 34.0937C43.9063 32.75 44.2813 31.4687 44.9688 30.3125C45.7501 29.0625 46.9063 28.0625 48.2501 27.4375C49.7188 26.6875 51.5626 26.3438 53.7813 26.3438C55.0626 26.3438 56.3751 26.4375 57.6563 26.625C58.5938 26.75 59.5001 27 60.3438 27.3437C60.4688 27.375 60.5938 27.5 60.6563 27.625C60.6876 27.75 60.7188 27.875 60.7188 28V33.0937C60.7188 33.2187 60.6563 33.3437 60.5626 33.4062C60.2813 33.4687 60.1251 33.4687 60.0001 33.4062Z" fill="#31A8FF"/>
</g>
<defs>
<clipPath id="clip0_2_352">
<rect width="75" height="73.125" fill="white"/>
</clipPath>
</defs>
</svg>
