<svg width="75" height="75" viewBox="0 0 75 75" fill="none" xmlns="http://www.w3.org/2000/svg">
<path d="M62.8979 1.17887L58.8468 1.43141L59.1626 9.85544C59.179 10.3213 58.6417 10.5931 58.2755 10.3043L55.5626 8.16559L52.3487 10.6043C52.266 10.6671 52.167 10.7051 52.0635 10.7138C51.9599 10.7225 51.856 10.7015 51.764 10.6533C51.6719 10.6051 51.5955 10.5317 51.5436 10.4417C51.4917 10.3517 51.4665 10.2487 51.471 10.1449L51.8325 1.86969L11.6442 4.38278C10.6882 4.44235 9.7934 4.87327 9.15078 5.58355C8.50815 6.29383 8.16865 7.22718 8.20476 8.18434L10.4665 68.441C10.501 69.3616 10.8805 70.2356 11.5296 70.8894C12.1787 71.5432 13.05 71.929 13.9704 71.9701L62.9618 74.1697C63.457 74.1916 63.9516 74.1131 64.4157 73.9389C64.8798 73.7646 65.3039 73.4984 65.6624 73.156C66.021 72.8137 66.3064 72.4022 66.5014 71.9463C66.6964 71.4905 66.7969 70.9998 66.7968 70.5041V4.84216C66.797 4.34079 66.6945 3.84469 66.4954 3.38453C66.2964 2.92436 66.0051 2.5099 65.6395 2.16676C65.2743 1.82343 64.8426 1.55863 64.3711 1.38872C63.8995 1.2188 63.3982 1.14738 62.8979 1.17887ZM38.605 13.5931C48.1604 13.5931 53.3788 18.7043 53.3788 28.4285C52.0874 29.4322 42.4686 30.116 42.4686 28.6881C42.6714 23.2388 40.2321 23.0004 38.8768 23.0004C37.5889 23.0004 35.4204 23.3882 35.4204 26.3074C35.4204 33.5074 53.9887 33.1189 53.9887 47.6496C53.9887 55.8234 47.3471 60.3381 38.8768 60.3381C30.1346 60.3381 22.4958 56.8013 23.3583 44.5394C23.6969 43.0998 34.8104 43.442 34.8104 44.5394C34.6757 49.599 35.827 51.0873 38.7403 51.0873C40.9768 51.0873 41.994 49.855 41.994 47.7791C41.994 40.3839 23.6969 40.125 23.6969 26.5675C23.6969 18.7834 29.0507 13.5931 38.605 13.5931Z" fill="#FF4785"/>
</svg>
