<svg width="75" height="75" viewBox="0 0 75 75" fill="none" xmlns="http://www.w3.org/2000/svg">
<g clip-path="url(#clip0_2_330)">
<path d="M75 0H0V75H75V0Z" fill="url(#paint0_linear_2_330)"/>
<path fill-rule="evenodd" clip-rule="evenodd" d="M55.8851 55.4803L37.0376 18.75H42.4291L61.2776 55.4803H55.8851ZM63.6457 55.9894L43.8363 17.385C43.6769 17.0719 43.3544 16.875 43.0029 16.875H35.5029C35.1757 16.875 34.8729 17.0447 34.7023 17.3241C34.5326 17.6025 34.5194 17.9503 34.6685 18.2409L54.4779 56.8463C54.6382 57.1584 54.9607 57.3553 55.3123 57.3553H62.8123C63.1385 57.3553 63.4422 57.1856 63.6119 56.9062C63.7826 56.6278 63.7957 56.2809 63.6457 55.9894ZM44.6238 55.4803L30.2013 28.4363L33.1554 23.5509L50.0069 55.4803H44.6238ZM34.0404 21.21C33.8819 20.9109 33.5763 20.7197 33.2388 20.7103C32.9144 20.6906 32.5844 20.8734 32.4091 21.1622L28.3216 27.9225C28.1501 28.2056 28.1407 28.5572 28.2954 28.8487L43.2344 56.8594C43.3976 57.1641 43.7163 57.3553 44.0623 57.3553H51.5623C51.8904 57.3553 52.1951 57.1828 52.3647 56.9016C52.5344 56.6203 52.5448 56.2706 52.391 55.98L34.0404 21.21ZM13.8494 55.4803L27.0794 33.6L29.7748 38.6522L23.5629 49.3856C23.3951 49.6763 23.3951 50.0334 23.5619 50.3241C23.7298 50.6138 24.0391 50.7928 24.3748 50.7928H36.2501L38.7494 55.4803H13.8494ZM37.6394 49.4137C37.4763 49.1091 37.1576 48.9178 36.8116 48.9178H26.0004L31.6582 39.1406C31.8213 38.8603 31.8269 38.5162 31.6751 38.2303L27.9588 31.2619C27.7994 30.9647 27.4938 30.7753 27.1563 30.7659C26.7963 30.75 26.5029 30.93 26.3294 31.2178L11.3848 55.9322C11.2104 56.2228 11.2048 56.5837 11.3707 56.8781C11.5366 57.1734 11.8479 57.3553 12.1873 57.3553H40.3123C40.6413 57.3553 40.946 57.1828 41.1157 56.9006C41.2854 56.6175 41.2948 56.2669 41.1391 55.9762L37.6394 49.4137Z" fill="white"/>
</g>
<defs>
<linearGradient id="paint0_linear_2_330" x1="0" y1="7500" x2="7500" y2="0" gradientUnits="userSpaceOnUse">
<stop stop-color="#BD0816"/>
<stop offset="1" stop-color="#FF5252"/>
</linearGradient>
<clipPath id="clip0_2_330">
<rect width="75" height="75" fill="white"/>
</clipPath>
</defs>
</svg>
