<svg width="75" height="75" viewBox="0 0 75 75" fill="none" xmlns="http://www.w3.org/2000/svg">
<g clip-path="url(#clip0_2_384)">
<path d="M68.2011 0H6.79893C3.04395 0 0 3.04395 0 6.79893V68.2011C0 71.9561 3.04395 75 6.79893 75H68.2011C71.9561 75 75 71.9561 75 68.2011V6.79893C75 3.04395 71.9561 0 68.2011 0Z" fill="#DC395F"/>
<path d="M25.0649 23.5973C27.5581 23.5973 29.6467 21.6432 29.6467 19.082C29.6467 16.5227 27.5581 14.5688 25.0649 14.5688C22.5718 14.5688 20.4838 16.5227 20.4838 19.082C20.4838 21.6429 22.5718 23.5973 25.0649 23.5973ZM15.5651 47.7731C15.2959 48.9186 15.1608 50.1555 15.1608 51.1645C15.1608 55.1403 17.3168 57.7797 21.8985 57.7797C25.6983 57.7797 28.7789 55.5232 30.997 51.8796L29.6426 57.315H37.188L41.5005 40.0185C42.5786 35.6392 44.6672 33.366 47.8342 33.366C50.327 33.366 51.8766 34.9164 51.8766 37.4758C51.8766 38.2173 51.8092 39.025 51.5396 39.9013L49.316 47.8516C48.9791 48.9971 48.8449 50.1432 48.8449 51.2204C48.8449 54.9947 51.0677 57.7554 55.7168 57.7554C59.6921 57.7554 62.8585 55.1963 64.6105 49.0648L61.6462 47.9204C60.1638 52.0281 58.8835 52.7708 57.8728 52.7708C56.862 52.7708 56.3229 52.0976 56.3229 50.7508C56.3229 50.1443 56.4583 49.4714 56.6599 48.661L58.8164 40.9155C59.3552 39.0968 59.5576 37.484 59.5576 36.0021C59.5576 30.2078 56.0537 27.1838 51.8092 27.1838C47.8342 27.1838 43.7912 30.7694 41.7703 34.5432L43.2521 27.7697H31.7314L30.1143 33.7357H35.5046L32.1853 47.0248C29.5787 52.8191 24.7907 52.9132 24.1898 52.7787C23.2031 52.5561 22.5721 52.1814 22.5721 50.8993C22.5721 50.1596 22.7068 49.097 23.0437 47.8158L28.0975 27.7697H15.2959L13.6787 33.7357H19.0011L15.5651 47.7731Z" fill="white"/>
</g>
<defs>
<clipPath id="clip0_2_384">
<rect width="75" height="75" fill="white"/>
</clipPath>
</defs>
</svg>
