<svg width="75" height="75" viewBox="0 0 75 75" fill="none" xmlns="http://www.w3.org/2000/svg">
<g clip-path="url(#clip0_2_394)">
<path fill-rule="evenodd" clip-rule="evenodd" d="M0.585938 0.585938V74.2922C1.17188 74.3402 1.16602 74.4299 1.38223 74.4299C22.6336 74.4363 43.9594 74.4363 65.2107 74.4363C68.1369 74.4363 70.9875 74.4387 73.9143 74.4299C74.1064 74.4293 74.4146 74.3402 74.4146 74.2922L74.4141 0.585938H0.585938ZM67.3828 37.4496V65.8975C67.3828 66.8865 67.2346 66.7969 66.2812 66.7969H9.24082C8.2875 66.7969 8.20312 66.8871 8.20312 65.898V8.92969C8.20312 7.94004 8.2875 7.61719 9.31289 7.61719H66.2092C67.2352 7.61719 67.3828 7.94004 67.3828 9.00176V37.4496ZM37.7426 23.6531C37.6172 23.2652 37.384 23.2453 37.0436 23.2471C35.2189 23.2582 33.3937 23.2875 31.5703 23.2471C30.9938 23.2348 30.7436 23.4076 30.5654 23.9695C27.9961 32.0467 25.3992 40.1186 22.8117 48.1898C22.3898 49.5059 21.9814 50.8271 21.5314 52.2557C23.2371 52.2557 24.7957 52.2322 26.3531 52.2709C26.8822 52.2838 27.1025 52.1098 27.2467 51.6111C27.9135 49.3119 28.6354 47.0285 29.2957 44.7275C29.451 44.185 29.7023 44.0385 30.2479 44.0449C32.84 44.0754 35.4334 44.0754 38.0256 44.0449C38.5301 44.0391 38.7352 44.202 38.8781 44.6672C39.5889 46.9811 40.3441 49.2809 41.0543 51.5947C41.2014 52.0729 41.3859 52.2568 41.9373 52.217C42.7038 52.1663 43.4719 52.1434 44.24 52.1484H46.9307L46.9184 51.9545C43.8586 42.5168 40.7947 33.0932 37.7426 23.6531ZM30.4693 39.8438C31.6629 35.7422 32.8477 31.7297 34.0148 27.7477C35.2178 31.7156 36.4412 35.7422 37.6828 39.8438H30.4693ZM48.0469 52.1484H53.9062V31.0547H48.0469V52.1484ZM51.0182 22.5908C49.282 22.5926 48 23.8254 48.0117 25.483C48.0234 27.1453 49.2551 28.3289 50.9748 28.3318C52.7625 28.3342 54.0264 27.1512 54.0141 25.4865C54.0012 23.7814 52.7678 22.5891 51.0182 22.5908Z" fill="#FAA625"/>
</g>
<defs>
<clipPath id="clip0_2_394">
<rect width="75" height="75" fill="white"/>
</clipPath>
</defs>
</svg>
