<svg width="16" height="13" viewBox="0 0 16 13" fill="none" xmlns="http://www.w3.org/2000/svg">
<path d="M9.5891 13C9.24243 13 8.93291 12.87 8.66052 12.61C8.38814 12.35 8.25195 12.0343 8.25195 11.6629V1.33714C8.25195 0.978096 8.38814 0.668572 8.66052 0.408572C8.93291 0.136191 9.24243 0 9.5891 0H13.8048C14.1886 0 14.5043 0.136191 14.752 0.408572C15.012 0.668572 15.142 0.978096 15.142 1.33714V4.14143H13.4148V2.39571C13.4148 2.22238 13.3529 2.06762 13.2291 1.93143C13.1177 1.79524 12.9629 1.72714 12.7648 1.72714H10.6477C10.4743 1.72714 10.3196 1.79524 10.1834 1.93143C10.0472 2.06762 9.9791 2.22238 9.9791 2.39571V10.6043C9.9791 10.8024 10.0472 10.9633 10.1834 11.0871C10.3196 11.211 10.4743 11.2729 10.6477 11.2729H12.7648C12.9629 11.2729 13.1177 11.211 13.2291 11.0871C13.3529 10.9633 13.4148 10.8024 13.4148 10.6043V8.84H15.142V11.6629C15.142 12.0343 15.012 12.35 14.752 12.61C14.5043 12.87 14.1886 13 13.8048 13H9.5891Z" fill="#E9DDCE"/>
<path d="M1.3 13C0.953333 13 0.65 12.87 0.39 12.61C0.13 12.35 0 12.0281 0 11.6443V1.35571C0 0.971905 0.13 0.65 0.39 0.390001C0.65 0.13 0.953333 0 1.3 0H5.51571C5.91191 0 6.23381 0.13 6.48143 0.390001C6.74143 0.65 6.87143 0.971905 6.87143 1.35571V11.6443C6.87143 12.0281 6.74143 12.35 6.48143 12.61C6.23381 12.87 5.91191 13 5.51571 13H1.3ZM2.35857 11.2914H4.45714C4.66762 11.2914 4.83476 11.2233 4.95857 11.0871C5.09476 10.951 5.16286 10.7838 5.16286 10.5857V2.41429C5.16286 2.20381 5.09476 2.03667 4.95857 1.91286C4.83476 1.77667 4.66762 1.70857 4.45714 1.70857H2.35857C2.18524 1.70857 2.03048 1.77667 1.89429 1.91286C1.77048 2.03667 1.70857 2.20381 1.70857 2.41429V10.5857C1.70857 10.7838 1.77048 10.951 1.89429 11.0871C2.03048 11.2233 2.18524 11.2914 2.35857 11.2914Z" fill="#E9DDCE"/>
</svg>
