<svg width="30" height="30" viewBox="0 0 30 30" fill="none" xmlns="http://www.w3.org/2000/svg">
<g clip-path="url(#clip0_112_1137)">
<path d="M15 0C6.71484 0 0 6.71484 0 15C0 23.2852 6.71484 30 15 30C23.2852 30 30 23.2852 30 15C30 6.71484 23.2852 0 15 0ZM24.3633 24.3574C23.1445 25.5762 21.7324 26.5312 20.1562 27.1934C18.5273 27.8848 16.793 28.2305 15 28.2305C13.2129 28.2305 11.4785 27.8789 9.84375 27.1934C8.26758 26.5254 6.84961 25.5703 5.63672 24.3574C4.41797 23.1387 3.46289 21.7266 2.80078 20.1504C2.10938 18.5215 1.75781 16.7871 1.75781 15C1.75781 13.2129 2.10938 11.4785 2.79492 9.84375C3.46289 8.26758 4.41797 6.84961 5.63086 5.63672C6.85547 4.41797 8.26758 3.46289 9.84375 2.79492C11.4785 2.10938 13.2129 1.75781 15 1.75781C16.7871 1.75781 18.5215 2.10938 20.1562 2.79492C21.7324 3.46289 23.1504 4.41797 24.3633 5.63086C25.582 6.84961 26.5371 8.26172 27.1992 9.83789C27.8906 11.4668 28.2363 13.2012 28.2363 14.9941C28.2363 16.7812 27.8848 18.5156 27.1992 20.1504C26.5312 21.7266 25.5762 23.1445 24.3633 24.3574Z" fill="#61DAFB"/>
<path d="M21.0586 10.6816H17.0859V11.8359H21.0586V10.6816Z" fill="#61DAFB"/>
<path d="M21.8906 13.8164C21.5801 13.3535 21.1875 13.0137 20.707 12.8027C20.2324 12.5859 19.6934 12.4805 19.0898 12.4863C18.0879 12.4863 17.2734 12.8027 16.6406 13.4355C16.0137 14.0683 15.6973 14.9765 15.6973 16.166C15.6973 17.4316 16.0488 18.3457 16.7461 18.9082C17.4434 19.4707 18.2461 19.7519 19.1602 19.7519C20.2676 19.7519 21.123 19.418 21.7383 18.75C22.1309 18.3281 22.3535 17.9121 22.4004 17.5078H20.5723C20.4668 17.7129 20.3438 17.8711 20.2031 17.9824C19.9453 18.1933 19.6113 18.2988 19.207 18.2988C18.8203 18.2988 18.4922 18.2109 18.2168 18.041C17.7656 17.7656 17.5313 17.2793 17.502 16.5937H22.4941C22.5059 16.0019 22.4824 15.5508 22.4355 15.2344C22.3535 14.6953 22.1719 14.2207 21.8906 13.8164ZM17.5488 15.4101C17.6191 14.9648 17.7773 14.6133 18.0293 14.3496C18.2813 14.0918 18.6387 13.957 19.0957 13.957C19.5176 13.957 19.875 14.0801 20.1621 14.3262C20.4434 14.5723 20.6016 14.9355 20.6367 15.4101H17.5488Z" fill="#61DAFB"/>
<path d="M13.6699 14.5488C13.9805 14.3906 14.2207 14.2148 14.3789 14.0215C14.666 13.6758 14.8066 13.2188 14.8066 12.6563C14.8066 12.1055 14.666 11.6309 14.3848 11.2383C13.9102 10.5938 13.1074 10.2656 11.9824 10.248H7.5V19.5234H11.6719C12.1465 19.5234 12.5801 19.4824 12.9844 19.4004C13.3887 19.3125 13.7402 19.1602 14.0332 18.9316C14.2969 18.7383 14.5137 18.4922 14.6895 18.2051C14.9707 17.7715 15.1055 17.2793 15.1055 16.7285C15.1055 16.1953 14.9824 15.7441 14.7422 15.3691C14.502 14.9941 14.1445 14.7246 13.6699 14.5488ZM9.3457 11.8594H11.3613C11.8066 11.8594 12.1699 11.9121 12.457 12.0059C12.791 12.1465 12.9551 12.4277 12.9551 12.8613C12.9551 13.248 12.832 13.5234 12.5801 13.6758C12.3281 13.8281 12.0059 13.9043 11.6016 13.9043H9.3457V11.8594ZM12.5391 17.7422C12.3164 17.8535 12.0059 17.9063 11.6016 17.9063H9.3457V15.4336H11.6309C12.0293 15.4395 12.334 15.4922 12.5566 15.5918C12.9551 15.7734 13.1484 16.1074 13.1484 16.5879C13.1484 17.1563 12.9492 17.5371 12.5391 17.7422Z" fill="#61DAFB"/>
</g>
<defs>
<clipPath id="clip0_112_1137">
<rect width="30" height="30" fill="white"/>
</clipPath>
</defs>
</svg>
