<svg width="30" height="30" viewBox="0 0 30 30" fill="none" xmlns="http://www.w3.org/2000/svg">
<path d="M29.9225 6.57864C29.7873 5.89743 29.4853 5.27405 29.0634 4.75907C28.9745 4.64687 28.8816 4.54638 28.7808 4.44589C28.0335 3.69483 26.9845 3.22632 25.8386 3.22632H4.16139C3.01547 3.22632 1.97027 3.69483 1.21939 4.44589C1.11891 4.54638 1.02598 4.64687 0.936797 4.75907C0.514746 5.27399 0.212695 5.89743 0.0812109 6.57864C0.0271875 6.84155 0 7.11325 0 7.38794V22.6125C0 23.1966 0.123867 23.758 0.344766 24.265C0.549668 24.749 0.851777 25.187 1.21934 25.5542C1.3125 25.6471 1.40502 25.7325 1.50598 25.8175C2.22586 26.4137 3.1551 26.7737 4.16139 26.7737H25.8386C26.8453 26.7737 27.7785 26.4137 28.4943 25.8137C28.5949 25.7325 28.6879 25.6471 28.7808 25.5542C29.1482 25.187 29.4503 24.749 29.6594 24.265V24.2613C29.8802 23.7543 29.9999 23.1966 29.9999 22.6126V7.38794C30 7.11325 29.9732 6.84155 29.9225 6.57864ZM2.72514 5.95146C3.09691 5.58009 3.59619 5.35526 4.16139 5.35526H25.8386C26.4038 5.35526 26.9075 5.58009 27.2749 5.95146C27.3406 6.01761 27.4025 6.09132 27.4572 6.16456L16.0955 16.0666C15.7821 16.3412 15.395 16.4769 15 16.4769C14.6089 16.4769 14.2221 16.3412 13.9046 16.0666L2.54719 6.16034C2.59746 6.0871 2.65939 6.01761 2.72514 5.95146ZM2.12895 22.6125V8.36341L10.3511 15.5362L2.13311 22.7013C2.12895 22.6741 2.12895 22.6435 2.12895 22.6125ZM25.8386 24.6444H4.16139C3.79336 24.6444 3.449 24.5476 3.1551 24.3777L11.8257 16.8215L12.6352 17.5257C13.3126 18.1143 14.1602 18.4124 15 18.4124C15.8441 18.4124 16.6917 18.1143 17.3691 17.5257L18.1781 16.8215L26.8453 24.3777C26.551 24.5476 26.2066 24.6444 25.8386 24.6444ZM27.8711 22.6125C27.8711 22.6435 27.8711 22.6741 27.8671 22.7013L19.6492 15.5403L27.8711 8.36722V22.6125Z" fill="#61DAFB"/>
</svg>
