<svg width="30" height="30" viewBox="0 0 30 30" fill="none" xmlns="http://www.w3.org/2000/svg">
<path d="M5.09294 3.74225C5.16573 2.45464 5.4733 1.89471 6.35534 1.44507C7.3044 0.961123 8.80127 1.18634 10.5626 2.07826C11.3213 2.46261 11.3985 2.47044 12.7281 2.29997C14.4953 2.07331 16.7704 2.07411 18.4016 2.30205C19.6351 2.47442 19.7161 2.46581 20.4766 2.08066C22.9767 0.814598 24.9506 0.897437 25.6653 2.29837C26.0221 2.99765 26.0883 4.81214 25.8117 6.30869C25.6583 7.13836 25.6746 7.24195 26.0441 7.7864C28.6437 11.6173 26.7706 17.827 22.3159 20.1444C21.9751 20.3217 21.6878 20.4315 21.4537 20.5209C20.7348 20.7954 20.5166 20.8787 20.7808 22.1422C20.9081 22.75 21.0613 24.261 21.1216 25.5002C21.2304 27.7402 21.2288 27.7559 20.8359 28.2129C20.3012 28.8345 19.5304 28.845 19.0082 28.2377C18.6676 27.8417 18.6343 27.6547 18.6343 26.1269C18.6343 23.869 18.3868 22.3682 17.8021 21.0822C17.1067 19.5519 17.6222 18.9812 19.2124 18.6392C21.4228 18.1637 23.1492 16.7996 24.1114 14.7682C25.0263 12.8372 25.1642 10.1688 23.5102 8.54585C23.0398 7.98687 23.0071 7.48057 23.3429 5.95386C23.4684 5.38325 23.5737 4.6471 23.5768 4.31781C23.5816 3.79779 23.5342 3.71926 23.2148 3.71926C23.0127 3.71926 22.2404 4.01327 21.4989 4.37256L20.3154 4.94619C20.2078 4.99832 20.0874 5.01837 19.9687 5.00475C16.9593 4.65932 14.0998 4.65399 11.0757 5.0061C10.9565 5.01997 10.8356 4.99992 10.7276 4.94752L9.54475 4.37352C8.80318 4.01359 8.03097 3.71926 7.8289 3.71926C7.3617 3.71926 7.35468 4.06419 7.78053 6.11347C8.04067 7.36504 8.21572 7.64391 7.46371 8.64465C6.3365 10.1447 6.05494 12.0074 6.6594 13.9645C7.42124 16.4307 9.28682 18.0969 11.9096 18.6527C13.4907 18.9879 13.9039 19.4251 13.3002 21.2381C12.8249 22.6649 12.5244 23.0326 11.8338 23.0326C10.9045 23.0326 10.3224 22.2276 10.6427 21.3852C10.7838 21.014 10.7419 20.9744 9.87133 20.6569C7.2139 19.688 5.18137 17.5164 4.25209 14.6529C3.53383 12.4398 3.84987 9.55924 5.00213 7.81816C5.39445 7.22535 5.40053 7.17507 5.21744 6.04021C5.11385 5.39777 5.05783 4.36379 5.09294 3.74225Z" fill="#61DAFB"/>
<path d="M4.16507 19.9317C3.78213 19.3574 3.00604 19.2021 2.43163 19.5851C1.85723 19.968 1.70201 20.7441 2.08494 21.3185C2.36766 21.7426 2.70587 22.091 2.99308 22.3781C3.04603 22.4311 3.09748 22.4822 3.14772 22.5321C3.38831 22.7711 3.60073 22.9821 3.81408 23.2326C4.28597 23.7865 4.75673 24.5325 5.02428 25.8702C5.14346 26.4661 5.57177 26.7871 5.80909 26.9274C6.06647 27.0794 6.34768 27.169 6.57909 27.2274C7.05248 27.3467 7.62714 27.4087 8.17252 27.4449C8.77122 27.4846 9.41993 27.4975 10 27.501C10.0004 28.1909 10.5599 28.7501 11.25 28.7501C11.9404 28.7501 12.5 28.1905 12.5 27.5001V26.2501C12.5 25.5597 11.9404 25.0001 11.25 25.0001C11.1322 25.0001 11.0047 25.0005 10.8696 25.001C10.1361 25.0032 9.17988 25.0061 8.33776 24.9504C7.93167 24.9235 7.59784 24.8854 7.35304 24.8387C6.97607 23.3589 6.36706 22.3742 5.71719 21.6114C5.42992 21.2742 5.13244 20.9792 4.89048 20.7392C4.84518 20.6944 4.80183 20.6514 4.76084 20.6104C4.48166 20.3312 4.29903 20.1327 4.16507 19.9317Z" fill="#61DAFB"/>
</svg>
