<svg width="30" height="30" viewBox="0 0 30 30" fill="none" xmlns="http://www.w3.org/2000/svg">
<g clip-path="url(#clip0_112_785)">
<path fill-rule="evenodd" clip-rule="evenodd" d="M18.25 9.39564V10.5668C19.3799 9.86486 20.6843 9.45572 22.6663 9.45572C29.1171 9.45572 29.9429 14.2774 29.9429 18.4779V29.9343L22.4842 30V19.0428C22.4842 17.2035 21.8255 16.8544 20.6074 16.8544C19.4493 16.8544 18.7305 17.2203 18.7305 19.0428V30L11.1742 29.9343V9.39563L18.25 9.39564ZM7.5075 9.38327V29.9914H0V9.38328H7.5075V9.38327ZM5.63062 11.2601H1.87687V28.1145H5.63062V11.2602V11.2601ZM16.3731 11.2725H13.051V28.0743L16.8536 28.1081V19.0428C16.8536 15.5049 19.2053 14.9775 20.6074 14.9775C22.3191 14.9775 24.3611 15.6832 24.3611 19.0428V28.1081L28.0661 28.0743V18.4779C28.0661 13.2695 26.604 11.3326 22.6663 11.3326C20.2995 11.3326 19.2748 12.0345 18.2706 12.8791L18.0098 13.1006H16.3731V11.2725ZM3.75375 0C5.82395 0 7.5075 1.68356 7.5075 3.75375C7.5075 5.82395 5.82395 7.5075 3.75375 7.5075C1.68356 7.5075 0 5.82395 0 3.75375C0 1.68356 1.68356 0 3.75375 0ZM3.75375 1.87688C2.71959 1.87688 1.87687 2.71959 1.87687 3.75375C1.87687 4.78791 2.71959 5.63062 3.75375 5.63062C4.78791 5.63062 5.63062 4.78791 5.63062 3.75375C5.63062 2.71959 4.78791 1.87688 3.75375 1.87688Z" fill="#61DAFB"/>
</g>
<defs>
<clipPath id="clip0_112_785">
<rect width="30" height="30" fill="white"/>
</clipPath>
</defs>
</svg>
