<svg width="22" height="22" viewBox="0 0 22 22" fill="none" xmlns="http://www.w3.org/2000/svg">
<path fill-rule="evenodd" clip-rule="evenodd" d="M2.44476 0.419453C1.88549 -0.139818 0.978729 -0.139818 0.419459 0.419453C-0.139812 0.978724 -0.139812 1.88548 0.419459 2.44475L8.52066 10.5459L0.419453 18.6471C-0.139818 19.2064 -0.139818 20.1132 0.419453 20.6724C0.978724 21.2317 1.88548 21.2317 2.44475 20.6724L10.546 12.5712L18.6471 20.6724C19.2064 21.2317 20.1132 21.2317 20.6724 20.6724C21.2317 20.1132 21.2317 19.2064 20.6724 18.6471L12.5713 10.5459L20.6724 2.44477C21.2317 1.8855 21.2317 0.97874 20.6724 0.41947C20.1132 -0.139801 19.2064 -0.139801 18.6471 0.41947L10.546 8.52065L2.44476 0.419453Z" fill="#D9D9D9"/>
</svg>
