<svg width="25" height="23" viewBox="0 0 25 23" fill="none" xmlns="http://www.w3.org/2000/svg">
<path d="M15.8322 22.4244C15.2598 22.4244 14.7488 22.2097 14.2991 21.7805C13.8494 21.3512 13.6245 20.8299 13.6245 20.2167V3.1685C13.6245 2.57569 13.8494 2.06466 14.2991 1.63538C14.7488 1.18567 15.2598 0.960815 15.8322 0.960815H22.7925C23.4262 0.960815 23.9475 1.18567 24.3563 1.63538C24.7856 2.06466 25.0002 2.57569 25.0002 3.1685V7.79849H22.1486V4.91624C22.1486 4.63006 22.0464 4.37454 21.842 4.14969C21.658 3.92483 21.4025 3.8124 21.0754 3.8124H17.5799C17.2938 3.8124 17.0382 3.92483 16.8134 4.14969C16.5885 4.37454 16.4761 4.63006 16.4761 4.91624V18.4689C16.4761 18.796 16.5885 19.0617 16.8134 19.2662C17.0382 19.4706 17.2938 19.5728 17.5799 19.5728H21.0754C21.4025 19.5728 21.658 19.4706 21.842 19.2662C22.0464 19.0617 22.1486 18.796 22.1486 18.4689V15.556H25.0002V20.2167C25.0002 20.8299 24.7856 21.3512 24.3563 21.7805C23.9475 22.2097 23.4262 22.4244 22.7925 22.4244H15.8322Z" fill="#61DAFB"/>
<path d="M2.14635 22.4244C1.57399 22.4244 1.07318 22.2097 0.643906 21.7805C0.214636 21.3512 0 20.8197 0 20.186V3.19916C0 2.56547 0.214636 2.03399 0.643906 1.60472C1.07318 1.17545 1.57399 0.960815 2.14635 0.960815H9.10667C9.7608 0.960815 10.2923 1.17545 10.7011 1.60472C11.1304 2.03399 11.345 2.56547 11.345 3.19916V20.186C11.345 20.8197 11.1304 21.3512 10.7011 21.7805C10.2923 22.2097 9.7608 22.4244 9.10667 22.4244H2.14635ZM3.8941 19.6034H7.35893C7.70643 19.6034 7.98239 19.491 8.18681 19.2662C8.41166 19.0413 8.52409 18.7653 8.52409 18.4383V4.9469C8.52409 4.5994 8.41166 4.32344 8.18681 4.11902C7.98239 3.89417 7.70643 3.78174 7.35893 3.78174H3.8941C3.60792 3.78174 3.3524 3.89417 3.12754 4.11902C2.92313 4.32344 2.82092 4.5994 2.82092 4.9469V18.4383C2.82092 18.7653 2.92313 19.0413 3.12754 19.2662C3.3524 19.491 3.60792 19.6034 3.8941 19.6034Z" fill="#61DAFB"/>
</svg>
