<svg width="25" height="21" viewBox="0 0 25 21" fill="none" xmlns="http://www.w3.org/2000/svg">
<path d="M2.20986 21C1.64986 21 1.15986 20.79 0.739864 20.37C0.319864 19.95 0.109864 19.43 0.109864 18.81V2.19C0.109864 1.57 0.319864 1.05 0.739864 0.629999C1.15986 0.209999 1.64986 -1.43051e-06 2.20986 -1.43051e-06H9.01986C9.65986 -1.43051e-06 10.1799 0.209999 10.5799 0.629999C10.9999 1.05 11.2099 1.57 11.2099 2.19V18.81C11.2099 19.43 10.9999 19.95 10.5799 20.37C10.1799 20.79 9.65986 21 9.01986 21H2.20986ZM3.91986 18.24H7.30986C7.64986 18.24 7.91986 18.13 8.11986 17.91C8.33986 17.69 8.44986 17.42 8.44986 17.1V3.9C8.44986 3.56 8.33986 3.29 8.11986 3.09C7.91986 2.87 7.64986 2.76 7.30986 2.76H3.91986C3.63986 2.76 3.38986 2.87 3.16986 3.09C2.96986 3.29 2.86986 3.56 2.86986 3.9V17.1C2.86986 17.42 2.96986 17.69 3.16986 17.91C3.38986 18.13 3.63986 18.24 3.91986 18.24ZM15.5999 21C15.0399 21 14.5399 20.79 14.0999 20.37C13.6599 19.95 13.4399 19.44 13.4399 18.84V2.16C13.4399 1.58 13.6599 1.08 14.0999 0.659999C14.5399 0.219999 15.0399 -1.43051e-06 15.5999 -1.43051e-06H22.4099C23.0299 -1.43051e-06 23.5399 0.219999 23.9399 0.659999C24.3599 1.08 24.5699 1.58 24.5699 2.16V6.06L21.7799 6.69V3.87C21.7799 3.59 21.6799 3.34 21.4799 3.12C21.2999 2.9 21.0499 2.79 20.7299 2.79H17.3099C17.0299 2.79 16.7799 2.9 16.5599 3.12C16.3399 3.34 16.2299 3.59 16.2299 3.87V17.13C16.2299 17.45 16.3399 17.71 16.5599 17.91C16.7799 18.11 17.0299 18.21 17.3099 18.21H20.7299C21.0499 18.21 21.2999 18.11 21.4799 17.91C21.6799 17.71 21.7799 17.45 21.7799 17.13V14.94L24.5699 14.28V18.84C24.5699 19.44 24.3599 19.95 23.9399 20.37C23.5399 20.79 23.0299 21 22.4099 21H15.5999Z" fill="#61DAFB"/>
</svg>
