<svg id="logo-svg" width="851" height="142" viewBox="0 0 851 142" fill="none" xmlns="http://www.w3.org/2000/svg">
<path d="M9.80081 141.797C7.18726 141.797 4.9004 140.379 2.94024 137.544C0.980081 134.708 0 131.196 0 127.01V14.7874C0 10.601 0.980081 7.08987 2.94024 4.25393C4.9004 1.41798 7.18726 0 9.80081 0H41.5834C44.5703 0 46.9972 1.41798 48.864 4.25393C50.8242 7.08987 51.8043 10.601 51.8043 14.7874V127.01C51.8043 131.196 50.8242 134.708 48.864 137.544C46.9972 140.379 44.5703 141.797 41.5834 141.797H9.80081ZM17.7815 123.161H33.6028C35.1896 123.161 36.4497 122.418 37.3831 120.933C38.4098 119.447 38.9232 117.624 38.9232 115.464V26.3338C38.9232 24.038 38.4098 22.2149 37.3831 20.8645C36.4497 19.379 35.1896 18.6362 33.6028 18.6362H17.7815C16.4747 18.6362 15.3079 19.379 14.2812 20.8645C13.3478 22.2149 12.8811 24.038 12.8811 26.3338V115.464C12.8811 117.624 13.3478 119.447 14.2812 120.933C15.3079 122.418 16.4747 123.161 17.7815 123.161Z" fill="url(#paint0_linear_23_38)"/>
<path d="M72.013 141.797C69.2127 141.797 66.8325 140.379 64.8724 137.544C62.9122 134.708 61.9321 131.264 61.9321 127.213V95.8146L74.9532 100.068V115.666C74.9532 117.692 75.4199 119.447 76.3533 120.933C77.3801 122.283 78.5468 122.959 79.8536 122.959H95.8149C97.215 122.959 98.3818 122.283 99.3152 120.933C100.342 119.447 100.855 117.692 100.855 115.666V80.0143C100.855 77.9886 100.342 76.3005 99.3152 74.9501C98.3818 73.4646 97.215 72.7218 95.8149 72.7218H72.013C69.2127 72.7218 66.8325 71.3038 64.8724 68.4679C62.9122 65.632 61.9321 62.1883 61.9321 58.137V14.5849C61.9321 10.5335 62.9122 7.08987 64.8724 4.25393C66.8325 1.41798 69.2127 0 72.013 0H103.796C106.596 0 108.976 1.41798 110.936 4.25393C112.896 7.08987 113.876 10.5335 113.876 14.5849V36.4622L100.855 32.0057V26.1312C100.855 24.1056 100.342 22.4175 99.3152 21.0671C98.3818 19.5816 97.215 18.8388 95.8149 18.8388H79.8536C78.5468 18.8388 77.3801 19.5816 76.3533 21.0671C75.4199 22.4175 74.9532 24.1056 74.9532 26.1312V46.5906C74.9532 48.6163 75.4199 50.3719 76.3533 51.8573C77.3801 53.2078 78.5468 53.883 79.8536 53.883H103.796C106.596 53.883 108.976 55.301 110.936 58.137C112.896 60.9729 113.876 64.4165 113.876 68.4679V127.213C113.876 131.264 112.896 134.708 110.936 137.544C108.976 140.379 106.596 141.797 103.796 141.797H72.013Z" fill="url(#paint1_linear_23_38)"/>
<path d="M134.095 141.797C131.481 141.797 129.148 140.379 127.094 137.544C125.041 134.708 124.014 131.264 124.014 127.213V14.5849C124.014 10.6686 125.041 7.29245 127.094 4.45649C129.148 1.4855 131.481 0 134.095 0H165.878C168.771 0 171.151 1.4855 173.018 4.45649C174.978 7.29245 175.958 10.6686 175.958 14.5849V40.9187L162.937 45.1726V26.1312C162.937 24.2406 162.471 22.5525 161.537 21.0671C160.697 19.5816 159.53 18.8388 158.037 18.8388H142.076C140.769 18.8388 139.602 19.5816 138.575 21.0671C137.549 22.5525 137.035 24.2406 137.035 26.1312V115.666C137.035 117.827 137.549 119.583 138.575 120.933C139.602 122.283 140.769 122.959 142.076 122.959H158.037C159.53 122.959 160.697 122.283 161.537 120.933C162.471 119.583 162.937 117.827 162.937 115.666V100.879L175.958 96.4223V127.213C175.958 131.264 174.978 134.708 173.018 137.544C171.151 140.379 168.771 141.797 165.878 141.797H134.095Z" fill="url(#paint2_linear_23_38)"/>
<path d="M182.13 142L201.872 0.202565H214.613L234.074 142H221.053L217.273 115.464H198.651L195.151 142H182.13ZM201.171 96.8274H215.033L208.312 46.388L201.171 96.8274Z" fill="url(#paint3_linear_23_38)"/>
<path d="M241.322 141.797V0H283.325C286.032 0 288.366 1.41798 290.326 4.25393C292.286 7.08987 293.266 10.5335 293.266 14.5849V58.137C293.266 62.1883 292.286 65.632 290.326 68.4679C288.366 71.3038 286.032 72.7218 283.325 72.7218H280.385L293.266 141.797H280.385L267.364 72.7218H254.343V141.797H241.322ZM254.343 53.883H275.345C276.651 53.883 277.818 53.2078 278.845 51.8573C279.872 50.3719 280.385 48.6163 280.385 46.5906V26.1312C280.385 24.1056 279.872 22.4175 278.845 21.0671C277.818 19.5816 276.651 18.8388 275.345 18.8388H254.343V53.883Z" fill="url(#paint4_linear_23_38)"/>
<path d="M340.01 141.797C337.397 141.797 335.063 140.379 333.01 137.544C330.956 134.708 329.93 131.264 329.93 127.213V14.5849C329.93 10.6686 330.956 7.29245 333.01 4.45649C335.063 1.4855 337.397 0 340.01 0H371.793C374.687 0 377.067 1.4855 378.934 4.45649C380.894 7.29245 381.874 10.6686 381.874 14.5849V40.9187L368.853 45.1726V26.1312C368.853 24.2406 368.386 22.5525 367.453 21.0671C366.613 19.5816 365.446 18.8388 363.952 18.8388H347.991C346.684 18.8388 345.518 19.5816 344.491 21.0671C343.464 22.5525 342.951 24.2406 342.951 26.1312V115.666C342.951 117.827 343.464 119.583 344.491 120.933C345.518 122.283 346.684 122.959 347.991 122.959H363.952C365.446 122.959 366.613 122.283 367.453 120.933C368.386 119.583 368.853 117.827 368.853 115.666V100.879L381.874 96.4223V127.213C381.874 131.264 380.894 134.708 378.934 137.544C377.067 140.379 374.687 141.797 371.793 141.797H340.01Z" fill="url(#paint5_linear_23_38)"/>
<path d="M388.045 142L407.787 0.202565H420.528L439.99 142H426.969L423.188 115.464H404.567L401.066 142H388.045ZM407.087 96.8274H420.948L414.227 46.388L407.087 96.8274Z" fill="url(#paint6_linear_23_38)"/>
<path d="M457.318 141.797C454.518 141.797 452.138 140.379 450.178 137.544C448.217 134.708 447.237 131.264 447.237 127.213V95.8146L460.258 100.068V115.666C460.258 117.692 460.725 119.447 461.659 120.933C462.685 122.283 463.852 122.959 465.159 122.959H481.12C482.52 122.959 483.687 122.283 484.62 120.933C485.647 119.447 486.161 117.692 486.161 115.666V80.0143C486.161 77.9886 485.647 76.3005 484.62 74.9501C483.687 73.4646 482.52 72.7218 481.12 72.7218H457.318C454.518 72.7218 452.138 71.3038 450.178 68.4679C448.217 65.632 447.237 62.1883 447.237 58.137V14.5849C447.237 10.5335 448.217 7.08987 450.178 4.25393C452.138 1.41798 454.518 0 457.318 0H489.101C491.901 0 494.281 1.41798 496.241 4.25393C498.202 7.08987 499.182 10.5335 499.182 14.5849V36.4622L486.161 32.0057V26.1312C486.161 24.1056 485.647 22.4175 484.62 21.0671C483.687 19.5816 482.52 18.8388 481.12 18.8388H465.159C463.852 18.8388 462.685 19.5816 461.659 21.0671C460.725 22.4175 460.258 24.1056 460.258 26.1312V46.5906C460.258 48.6163 460.725 50.3719 461.659 51.8573C462.685 53.2078 463.852 53.883 465.159 53.883H489.101C491.901 53.883 494.281 55.301 496.241 58.137C498.202 60.9729 499.182 64.4165 499.182 68.4679V127.213C499.182 131.264 498.202 134.708 496.241 137.544C494.281 140.379 491.901 141.797 489.101 141.797H457.318Z" fill="url(#paint7_linear_23_38)"/>
<path d="M525.35 141.797V18.8388H505.888V0H557.832V18.8388H538.371V141.797H525.35Z" fill="url(#paint8_linear_23_38)"/>
<path d="M555.129 142L574.871 0.202565H587.612L607.074 142H594.053L590.272 115.464H571.651L568.15 142H555.129ZM574.171 96.8274H588.032L581.312 46.388L574.171 96.8274Z" fill="url(#paint9_linear_23_38)"/>
<path d="M614.601 141.797V0H627.623L653.665 94.5992V0H666.686V141.797H653.665L627.623 47.1983V141.797H614.601Z" fill="url(#paint10_linear_23_38)"/>
<path d="M678.454 141.797V0H730.539V18.6362H691.475V53.883H717.518L714.577 72.7218H691.475V122.959H730.539V141.797H678.454Z" fill="url(#paint11_linear_23_38)"/>
<path d="M740.94 141.797V0H782.944C785.65 0 787.984 1.41798 789.944 4.25393C791.904 7.08987 792.884 10.5335 792.884 14.5849V127.213C792.884 131.264 791.904 134.708 789.944 137.544C787.984 140.379 785.65 141.797 782.944 141.797H740.94ZM753.961 122.959H774.963C776.27 122.959 777.436 122.283 778.463 120.933C779.49 119.447 780.003 117.692 780.003 115.666V26.1312C780.003 24.1056 779.49 22.4175 778.463 21.0671C777.436 19.5816 776.27 18.8388 774.963 18.8388H753.961V122.959Z" fill="url(#paint12_linear_23_38)"/>
<path d="M799.056 142L818.797 0.202565H831.538L851 142H837.979L834.199 115.464H815.577L812.077 142H799.056ZM818.097 96.8274H831.958L825.238 46.388L818.097 96.8274Z" fill="url(#paint13_linear_23_38)"/>
<defs>
<linearGradient id="paint0_linear_23_38" x1="559" y1="173" x2="560.5" y2="-66.5" gradientUnits="userSpaceOnUse">
<stop stop-color="#F2AE98"/>
<stop offset="0.41" stop-color="#BAD5E9"/>
<stop offset="0.975" stop-color="#61DAFB"/>
</linearGradient>
<linearGradient id="paint1_linear_23_38" x1="559" y1="173" x2="560.5" y2="-66.5" gradientUnits="userSpaceOnUse">
<stop stop-color="#F2AE98"/>
<stop offset="0.41" stop-color="#BAD5E9"/>
<stop offset="0.975" stop-color="#61DAFB"/>
</linearGradient>
<linearGradient id="paint2_linear_23_38" x1="559" y1="173" x2="560.5" y2="-66.5" gradientUnits="userSpaceOnUse">
<stop stop-color="#F2AE98"/>
<stop offset="0.41" stop-color="#BAD5E9"/>
<stop offset="0.975" stop-color="#61DAFB"/>
</linearGradient>
<linearGradient id="paint3_linear_23_38" x1="559" y1="173" x2="560.5" y2="-66.5" gradientUnits="userSpaceOnUse">
<stop stop-color="#F2AE98"/>
<stop offset="0.41" stop-color="#BAD5E9"/>
<stop offset="0.975" stop-color="#61DAFB"/>
</linearGradient>
<linearGradient id="paint4_linear_23_38" x1="559" y1="173" x2="560.5" y2="-66.5" gradientUnits="userSpaceOnUse">
<stop stop-color="#F2AE98"/>
<stop offset="0.41" stop-color="#BAD5E9"/>
<stop offset="0.975" stop-color="#61DAFB"/>
</linearGradient>
<linearGradient id="paint5_linear_23_38" x1="559" y1="173" x2="560.5" y2="-66.5" gradientUnits="userSpaceOnUse">
<stop stop-color="#F2AE98"/>
<stop offset="0.41" stop-color="#BAD5E9"/>
<stop offset="0.975" stop-color="#61DAFB"/>
</linearGradient>
<linearGradient id="paint6_linear_23_38" x1="559" y1="173" x2="560.5" y2="-66.5" gradientUnits="userSpaceOnUse">
<stop stop-color="#F2AE98"/>
<stop offset="0.41" stop-color="#BAD5E9"/>
<stop offset="0.975" stop-color="#61DAFB"/>
</linearGradient>
<linearGradient id="paint7_linear_23_38" x1="559" y1="173" x2="560.5" y2="-66.5" gradientUnits="userSpaceOnUse">
<stop stop-color="#F2AE98"/>
<stop offset="0.41" stop-color="#BAD5E9"/>
<stop offset="0.975" stop-color="#61DAFB"/>
</linearGradient>
<linearGradient id="paint8_linear_23_38" x1="559" y1="173" x2="560.5" y2="-66.5" gradientUnits="userSpaceOnUse">
<stop stop-color="#F2AE98"/>
<stop offset="0.41" stop-color="#BAD5E9"/>
<stop offset="0.975" stop-color="#61DAFB"/>
</linearGradient>
<linearGradient id="paint9_linear_23_38" x1="559" y1="173" x2="560.5" y2="-66.5" gradientUnits="userSpaceOnUse">
<stop stop-color="#F2AE98"/>
<stop offset="0.41" stop-color="#BAD5E9"/>
<stop offset="0.975" stop-color="#61DAFB"/>
</linearGradient>
<linearGradient id="paint10_linear_23_38" x1="559" y1="173" x2="560.5" y2="-66.5" gradientUnits="userSpaceOnUse">
<stop stop-color="#F2AE98"/>
<stop offset="0.41" stop-color="#BAD5E9"/>
<stop offset="0.975" stop-color="#61DAFB"/>
</linearGradient>
<linearGradient id="paint11_linear_23_38" x1="559" y1="173" x2="560.5" y2="-66.5" gradientUnits="userSpaceOnUse">
<stop stop-color="#F2AE98"/>
<stop offset="0.41" stop-color="#BAD5E9"/>
<stop offset="0.975" stop-color="#61DAFB"/>
</linearGradient>
<linearGradient id="paint12_linear_23_38" x1="559" y1="173" x2="560.5" y2="-66.5" gradientUnits="userSpaceOnUse">
<stop stop-color="#F2AE98"/>
<stop offset="0.41" stop-color="#BAD5E9"/>
<stop offset="0.975" stop-color="#61DAFB"/>
</linearGradient>
<linearGradient id="paint13_linear_23_38" x1="559" y1="173" x2="560.5" y2="-66.5" gradientUnits="userSpaceOnUse">
<stop stop-color="#F2AE98"/>
<stop offset="0.41" stop-color="#BAD5E9"/>
<stop offset="0.975" stop-color="#61DAFB"/>
</linearGradient>
</defs>
</svg>
